<svg width="21" height="21" viewBox="0 0 21 21" fill="none" xmlns="http://www.w3.org/2000/svg">
<g clip-path="url(#clip0_1_530)">
<path d="M9.72071 0.0287514C8.19904 0.172306 7.04239 0.49633 5.77911 1.13207C4.11388 1.96469 2.57169 3.37973 1.55861 5.00395C0.824426 6.17699 0.291223 7.69047 0.0738403 9.20805C0.00411377 9.69203 0.00411377 11.308 0.0738403 11.792C0.246106 13.002 0.566028 14.0602 1.06642 15.0733C1.62833 16.2217 2.18204 16.9928 3.09259 17.9075C3.99904 18.8098 4.78243 19.3717 5.88575 19.9131C6.65685 20.2905 7.15314 20.475 7.93654 20.6719C9.98732 21.1887 12.0463 21.0903 14.0479 20.3807C14.659 20.1633 15.7172 19.6342 16.2627 19.2692C17.7598 18.2725 18.9984 16.8985 19.8147 15.3194C20.557 13.892 20.9262 12.4729 20.9877 10.8487C21.0492 9.10141 20.6883 7.43617 19.909 5.86938C19.4004 4.84398 18.8303 4.03598 18.0305 3.21156C17.1445 2.29281 16.275 1.66117 15.1143 1.08695C13.9002 0.488127 12.7682 0.164103 11.4229 0.0410557C11.0045 0.00414276 10.057 -0.00406075 9.72071 0.0287514ZM13.2809 5.81195L13.2891 6.84145L12.5426 6.85785C11.4065 6.87836 11.4024 6.88246 11.4024 8.01859V8.73637H12.3662C12.8953 8.73637 13.3301 8.74047 13.3301 8.74867C13.3301 8.75688 13.285 9.19984 13.2276 9.73715C13.1701 10.2745 13.125 10.7502 13.125 10.7913C13.125 10.8651 13.084 10.8692 12.2637 10.8692H11.4024V13.9043V16.9395H10.1309H8.85939V13.9043V10.8692H8.26466H7.66993V9.80277V8.73637H8.26056H8.85118L8.87169 7.7807C8.8922 6.70199 8.93322 6.47231 9.20802 5.95551C9.54435 5.31156 10.1637 4.90551 10.9594 4.80297C11.0988 4.78246 11.6813 4.77016 12.2432 4.77426L13.2686 4.77836L13.2809 5.81195Z" fill="white"/>
</g>
<defs>
<clipPath id="clip0_1_530">
<rect width="21" height="21" fill="white"/>
</clipPath>
</defs>
</svg>
