<svg width="21" height="21" viewBox="0 0 21 21" fill="none" xmlns="http://www.w3.org/2000/svg">
<g clip-path="url(#clip0_1_533)">
<path d="M9.4951 0.0450935C6.21385 0.385525 3.33866 2.1697 1.59139 4.95056C-0.885951 8.89217 -0.418373 14.1258 2.71522 17.5342C4.45838 19.4291 6.61581 20.557 9.20799 20.9262C9.69608 20.9959 11.308 20.9918 11.8125 20.922C14.3637 20.5693 16.5211 19.4455 18.2601 17.5588C19.6916 16.0084 20.6062 14.0232 20.9262 11.792C20.9959 11.308 20.9959 9.69197 20.9262 9.20799C20.6842 7.50174 20.1428 6.05388 19.2445 4.70037C18.8672 4.12615 18.4857 3.65857 17.9525 3.12127C16.316 1.46424 14.2898 0.442945 11.956 0.0984154C11.4515 0.0245857 9.99549 -0.00822639 9.4951 0.0450935ZM9.60584 6.57478C10.4549 7.81345 11.1603 8.82654 11.1726 8.83064C11.1849 8.83474 12.0668 7.82166 13.1373 6.58299L15.0773 4.32713L15.6023 4.31482C15.9099 4.31072 16.1191 4.31892 16.1109 4.34353C16.1068 4.36404 15.6064 4.95056 15.0076 5.64373C14.4088 6.34099 13.408 7.50584 12.7846 8.23181L11.6484 9.54842L13.8264 12.723C15.024 14.4662 16.1232 16.0658 16.2709 16.2709L16.5334 16.6523H14.7328H12.9322L11.2998 14.2734C10.4015 12.965 9.65506 11.8945 9.64276 11.8986C9.63045 11.8986 8.7035 12.965 7.58788 14.2652L5.5535 16.6318L5.01209 16.6441L4.47069 16.6564L6.82499 13.9166L9.17928 11.1808L9.04803 10.9922C8.90038 10.7912 4.65526 4.60603 4.53221 4.41736L4.46249 4.30662L6.25897 4.31482L8.05956 4.32713L9.60584 6.57478Z" fill="white"/>
<path d="M9.67557 10.5082L13.4408 15.8935L14.2447 15.9058C14.6877 15.9099 15.0527 15.9017 15.0527 15.8853C15.0527 15.8648 13.367 13.4449 11.308 10.5L7.56327 5.14742L6.73475 5.13511L5.91034 5.12691L9.67557 10.5082Z" fill="white"/>
</g>
<defs>
<clipPath id="clip0_1_533">
<rect width="21" height="21" fill="white"/>
</clipPath>
</defs>
</svg>
