<svg width="21" height="21" viewBox="0 0 21 21" fill="none" xmlns="http://www.w3.org/2000/svg">
<g clip-path="url(#clip0_1_537)">
<path d="M9.51974 0.0409889C5.95959 0.385521 2.77677 2.54294 1.16486 5.70935C0.594741 6.82907 0.258413 7.90779 0.0738427 9.20798C-0.00818856 9.7822 0.00411613 11.2752 0.0984521 11.915C0.258413 13.0552 0.594741 14.134 1.11154 15.1717C2.13283 17.2306 3.76525 18.8631 5.82834 19.8884C9.17111 21.5537 13.125 21.324 16.2422 19.2855C17.4604 18.4898 18.617 17.3086 19.4045 16.0535C19.708 15.5777 20.1592 14.6508 20.3643 14.0929C20.5735 13.5269 20.8154 12.5508 20.9016 11.915C20.9959 11.2711 21.0082 9.7781 20.9262 9.20798C20.6842 7.50583 20.1428 6.05388 19.2445 4.70036C18.8672 4.12614 18.4858 3.65857 17.9526 3.12126C16.316 1.46833 14.2817 0.442944 11.9561 0.0984116C11.4557 0.0245838 10.0447 -0.0082283 9.51974 0.0409889ZM14.4826 6.6281C15.2496 6.85368 15.8156 7.45661 15.9756 8.22361C16.0617 8.64196 16.0617 12.358 15.9756 12.7763C15.8156 13.5433 15.2455 14.1463 14.4826 14.3718C14.2858 14.4293 13.8223 14.4375 10.5 14.4375C7.17775 14.4375 6.71427 14.4293 6.5174 14.3718C5.75041 14.1463 5.18439 13.5433 5.02443 12.7763C4.9383 12.358 4.9383 8.64196 5.02443 8.22361C5.18439 7.47302 5.68888 6.91111 6.43947 6.65681L6.70607 6.56657L10.4836 6.56247C13.8223 6.56247 14.2858 6.57068 14.4826 6.6281Z" fill="white"/>
<path d="M9.02344 10.4959C9.02344 11.4229 9.03164 12.1816 9.04395 12.1816C9.08496 12.1816 11.9355 10.5205 11.9355 10.5C11.9314 10.4795 9.14238 8.85117 9.06445 8.82656C9.03574 8.81836 9.02344 9.40898 9.02344 10.4959Z" fill="white"/>
</g>
<defs>
<clipPath id="clip0_1_537">
<rect width="21" height="21" fill="white"/>
</clipPath>
</defs>
</svg>
